# xmcd CD database file
#
# Track frame offsets:
#	155
#	48365
#	69385
#	109714
#	134738
#	160893
#	211059
#	229748
#	261446
#	286668
#
# Disc length: 4292 seconds
#
# Revision: 0
# Processed by: cddbd v1.5.2PL0 Copyright (c) Steve Scherf et al.
# Submitted via: CDex 1.51
#
DISCID=8e10c20a
DTITLE=Tone Jansa - Coburg Unity
DYEAR=2002
DGENRE=Jazz
TTITLE0=Maj
TTITLE1=Hallo Moatley Coat
TTITLE2=Satin Doll
TTITLE3=Bellevue
TTITLE4=Coburg Unity
TTITLE5=In A Mellow Tone
TTITLE6=Donna Lee
TTITLE7=Body And Soul
TTITLE8=Otla
TTITLE9=Take The A-Train
EXTD=YEAR: 2002
EXTT0=
EXTT1=
EXTT2=
EXTT3=
EXTT4=
EXTT5=
EXTT6=
EXTT7=
EXTT8=
EXTT9=
PLAYORDER=
